#!OML:ASF I:\Actors\actors\Patient Classification 2\Patient 1\Session 1\actor1.ASF
:FULLY-SPECIFIED
:DEGREES
74
root -0.583187 18.6816 5.74803 2.2866 -5.24846 0.27915
lowerback 1.10318 1.12249 -3.60338
upperback -2.38599 1.41848 0.592979
thorax -3.17875 0.803444 2.5747
lowerneck -14.9865 -1.64065 -1.36225
upperneck 22.7288 -2.58358 2.47309
head 9.72381 -1.03812 0.760201
rclavicle 1.20403e-014 8.29926e-015
rhumerus -48.7097 -0.723689 -85.8741
rradius 43.4105
rwrist 10.1936
rhand -9.38024 -43.3938
rfingers 7.12502
rthumb 16.5804 -72.7055
lclavicle 1.20403e-014 8.29926e-015
lhumerus -41.593 -1.70994 91.2005
lradius 37.346
lwrist -1.33959
lhand -4.64799 -20.7112
lfingers 7.12502
lthumb 21.1316 8.15726
rfemur 0 0 0
rtibia 0
rfoot 0 0
rtoes 0
lfemur -2.76611 -7.39039 -15.6143
ltibia 19.3342
lfoot -24.6026 17.5399
ltoes -53.7954
75
root -0.583136 18.6813 5.74968 2.28644 -5.26814 0.255368
lowerback 1.09462 1.12324 -3.58286
upperback -2.38249 1.42067 0.602896
thorax -3.17013 0.80397 2.57353
lowerneck -15.0383 -1.65428 -1.5901
upperneck 22.7401 -2.58669 2.6447
head 9.74325 -1.03908 0.857567
rclavicle -1.21156e-015 6.4803e-015
rhumerus -48.6983 -0.747833 -85.8448
rradius 43.3291
rwrist 10.111
rhand -9.30393 -43.4225
rfingers 7.12502
rthumb 16.6539 -72.7281
lclavicle -1.21156e-015 6.4803e-015
lhumerus -41.5774 -1.62665 91.1728
lradius 37.2887
lwrist -1.39428
lhand -4.646 -20.7954
lfingers 7.12502
lthumb 21.1335 8.07281
rfemur 0 0 0
rtibia 0
rfoot 0 0
rtoes 0
lfemur -2.75696 -7.33123 -15.5925
ltibia 19.3399
lfoot -24.5651 17.5597
ltoes -53.8813
76
root -0.583306 18.6815 5.75085 2.31502 -5.2863 0.248074
lowerback 1.06134 1.14686 -3.56806
upperback -2.40865 1.45274 0.576726
thorax -3.1796 0.819796 2.53722
lowerneck -15.0962 -1.69657 -1.87686
upperneck 22.7904 -2.62244 2.84379
head 9.7798 -1.05677 0.970434
rclavicle -4.85858e-015 -8.81486e-015
rhumerus -48.7733 -0.784861 -85.9026
rradius 43.4458
rwrist 10.1305
rhand -9.44212 -43.3998
rfingers 7.12502
rthumb 16.5208 -72.7164
lclavicle -4.85858e-015 -8.81486e-015
lhumerus -41.6514 -1.71164 91.1628
lradius 37.3122
lwrist -1.37213
lhand -4.70612 -20.8496
lfingers 7.12502
lthumb 21.0758 8.0251
rfemur 0 0 0
rtibia 0
rfoot 0 0
rtoes 0
lfemur -2.78371 -7.32627 -15.5868
ltibia 19.3507
lfoot -24.5729 17.6153
ltoes -53.9151
77
root -0.582735 18.6816 5.75156 2.32951 -5.29332 0.237217
lowerback 1.04682 1.16139 -3.54541
upperback -2.42716 1.47258 0.561032
thorax -3.19086 0.829381 2.50755
lowerneck -15.0286 -1.70737 -1.85499
upperneck 22.7535 -2.64578 2.85448
head 9.75445 -1.06536 0.967753
rclavicle 6.34403e-015 -4.65902e-015
rhumerus -48.8417 -0.802173 -85.9385
rradius 43.5632
rwrist 10.2097
rhand -9.51924 -43.38
rfingers 7.12502
rthumb 16.4466 -72.7028
lclavicle 6.34403e-015 -4.65902e-015
lhumerus -41.729 -1.8029 91.1775
lradius 37.3622
lwrist -1.31485
lhand -4.73623 -20.8729
lfingers 7.12502
lthumb 21.0468 8.00502
rfemur 0 0 0
rtibia 0
rfoot 0 0
rtoes 0
lfemur -2.79831 -7.34692 -15.5805
ltibia 19.362
lfoot -24.6086 17.646
ltoes -53.9514
78
root -0.582073 18.6815 5.75209 2.33357 -5.29763 0.225583
lowerback 1.05478 1.16114 -3.52378
upperback -2.4398 1.4724 0.563765
thorax -3.20788 0.829276 2.49793
lowerneck -14.8596 -1.67651 -1.56217
upperneck 22.6564 -2.63751 2.69668
head 9.68152 -1.05654 0.865365
rclavicle 2.69951e-014 6.21202e-015
rhumerus -48.8836 -0.800836 -85.9278
rradius 43.5903
rwrist 10.2371
rhand -9.49192 -43.385
rfingers 7.12502
rthumb 16.4729 -72.7057
lclavicle 2.69951e-014 6.21202e-015
lhumerus -41.7748 -1.8069 91.1918
lradius 37.3629
lwrist -1.26589
lhand -4.72587 -20.9774
lfingers 7.12502
lthumb 21.0568 7.89936
rfemur 0 0 0
rtibia 0
rfoot 0 0
rtoes 0
lfemur -2.80542 -7.32057 -15.5673
ltibia 19.3719
lfoot -24.5764 17.6255
ltoes -53.8986
79
root -0.581741 18.6815 5.75204 2.34229 -5.30429 0.21531
lowerback 1.07887 1.15958 -3.51183
upperback -2.4564 1.4697 0.570454
thorax -3.23833 0.828489 2.49756
lowerneck -14.7839 -1.6569 -1.40483
upperneck 22.6307 -2.62059 2.57797
head 9.65381 -1.04955 0.800232
rclavicle -1.47737e-014 -9.93923e-016
rhumerus -48.9073 -0.787927 -85.9226
rradius 43.6002
rwrist 10.2326
rhand -9.4275 -43.4126
rfingers 7.12502
rthumb 16.5349 -72.7281
lclavicle -1.47737e-014 -9.93923e-016
lhumerus -41.7871 -1.75345 91.186
lradius 37.3283
lwrist -1.2629
lhand -4.74015 -21.033
lfingers 7.12502
lthumb 21.0431 7.84533
rfemur 0 0 0
rtibia 0
rfoot 0 0
rtoes 0
lfemur -2.81897 -7.30998 -15.5538
ltibia 19.3797
lfoot -24.5654 17.6209
ltoes -53.838
80
root -0.581302 18.6816 5.75222 2.33829 -5.30459 0.206567
lowerback 1.10999 1.16266 -3.49644
upperback -2.46102 1.47307 0.572722
thorax -3.26053 0.830259 2.49043
lowerneck -14.8019 -1.64935 -1.41755
upperneck 22.6387 -2.60328 2.56416
head 9.6596 -1.04394 0.799674
rclavicle -1.50917e-014 -5.92627e-015
rhumerus -48.9084 -0.788528 -85.9164
rradius 43.59
rwrist 10.2367
rhand -9.41675 -43.3962
rfingers 7.12502
rthumb 16.5452 -72.7109
lclavicle -1.50917e-014 -5.92627e-015
lhumerus -41.764 -1.71011 91.1804
lradius 37.2943
lwrist -1.27584
lhand -4.71933 -20.9715
lfingers 7.12502
lthumb 21.0631 7.90455
rfemur 0 0 0
rtibia 0
rfoot 0 0
rtoes 0
lfemur -2.81383 -7.33248 -15.5499
ltibia 19.3856
lfoot -24.5971 17.636
ltoes -53.8687
81
root -0.581114 18.6815 5.75238 2.33347 -5.29235 0.207523
lowerback 1.12605 1.16534 -3.48796
upperback -2.46056 1.4761 0.565575
thorax -3.26889 0.831588 2.47784
lowerneck -14.8167 -1.64161 -1.42387
upperneck 22.6363 -2.59184 2.56956
head 9.66143 -1.03841 0.80397
rclavicle -4.21291e-015 1.67725e-015
rhumerus -48.8996 -0.847766 -85.8768
rradius 43.4758
rwrist 10.2323
rhand -9.49043 -43.2912
rfingers 7.12502
rthumb 16.4743 -72.6118
lclavicle -4.21291e-015 1.67725e-015
lhumerus -41.7691 -1.7496 91.1933
lradius 37.3122
lwrist -1.25154
lhand -4.67207 -21.0025
lfingers 7.12502
lthumb 21.1085 7.86853
rfemur 0 0 0
rtibia 0
rfoot 0 0
rtoes 0
lfemur -2.81143 -7.39353 -15.5587
ltibia 19.3957
lfoot -24.6447 17.6486
ltoes -53.8901
82
root -0.580788 18.6816 5.75219 2.34683 -5.27927 0.223
lowerback 1.11615 1.16227 -3.5046
upperback -2.4622 1.47179 0.56232
thorax -3.2651 0.829772 2.48419
lowerneck -14.8127 -1.65132 -1.40591
upperneck 22.641 -2.60226 2.53755
head 9.66186 -1.04535 0.788536
rclavicle 4.567e-015 -7.82715e-016
rhumerus -48.8929 -0.89068 -85.8368
rradius 43.376
rwrist 10.2059
rhand -9.52337 -43.2583
rfingers 7.12502
rthumb 16.4426 -72.5815
lclavicle 4.567e-015 -7.82715e-016
lhumerus -41.7995 -1.79516 91.2231
lradius 37.3619
lwrist -1.19563
lhand -4.63668 -20.9929
lfingers 7.12502
lthumb 21.1425 7.87432
rfemur 0 0 0
rtibia 0
rfoot 0 0
rtoes 0
lfemur -2.83714 -7.41544 -15.5734
ltibia 19.4066
lfoot -24.657 17.6256
ltoes -53.8886
83
root -0.580256 18.6821 5.75284 2.36741 -5.28191 0.216689
lowerback 1.09132 1.16419 -3.49927
upperback -2.46077 1.47567 0.570627
thorax -3.24994 0.831422 2.49013
lowerneck -14.8109 -1.65833 -1.41804
upperneck 22.6431 -2.60987 2.54075
head 9.66263 -1.04956 0.790737
rclavicle 4.80772e-015 3.06874e-015
rhumerus -48.9077 -0.84379 -85.8639
rradius 43.4868
rwrist 10.2277
rhand -9.51604 -43.3067
rfingers 7.12502
rthumb 16.4496 -72.6293
lclavicle 4.80772e-015 3.06874e-015
lhumerus -41.7973 -1.77346 91.2436
lradius 37.372
lwrist -1.18396
lhand -4.56349 -20.9076
lfingers 7.12502
lthumb 21.2128 7.95167
rfemur 0 0 0
rtibia 0
rfoot 0 0
rtoes 0
lfemur -2.85873 -7.35424 -15.5582
ltibia 19.4069
lfoot -24.5972 17.5979
ltoes -53.8821
84
root -0.580042 18.6821 5.75378 2.38552 -5.29488 0.196935
lowerback 1.06609 1.17135 -3.47496
upperback -2.45034 1.48718 0.577677
thorax -3.22516 0.836082 2.48392
lowerneck -14.8692 -1.63527 -1.4476
upperneck 22.6803 -2.57873 2.57433
head 9.68698 -1.03297 0.811064
rclavicle -1.93621e-014 -9.31803e-015
rhumerus -48.9058 -0.798765 -85.8937
rradius 43.5924
rwrist 10.2895
rhand -9.51019 -43.3088
rfingers 7.12502
rthumb 16.4553 -72.6309
lclavicle -1.93621e-014 -9.31803e-015
lhumerus -41.7446 -1.71427 91.2333
lradius 37.3301
lwrist -1.26263
lhand -4.49371 -20.918
lfingers 7.12502
lthumb 21.2798 7.93373
rfemur 0 0 0
rtibia 0
rfoot 0 0
rtoes 0
lfemur -2.87235 -7.32264 -15.5349
ltibia 19.4099
lfoot -24.5821 17.6087
ltoes -53.8678
85
root -0.579654 18.6819 5.75412 2.40064 -5.30119 0.230733
lowerback 1.04822 1.17182 -3.51012
upperback -2.44113 1.48735 0.56684
thorax -3.20628 0.836433 2.49293
lowerneck -14.9386 -1.6064 -1.48309
upperneck 22.7314 -2.54017 2.61593
head 9.71836 -1.01235 0.836139
rclavicle 7.46335e-015 -6.27414e-015
rhumerus -48.8892 -0.777049 -85.9088
rradius 43.5877
rwrist 10.2929
rhand -9.58758 -43.2874
rfingers 7.12502
rthumb 16.3808 -72.6157
lclavicle 7.46335e-015 -6.27414e-015
lhumerus -41.6931 -1.69613 91.2257
lradius 37.2819
lwrist -1.29489
lhand -4.51856 -20.9382
lfingers 7.12502
lthumb 21.2559 7.91629
rfemur 0 0 0
rtibia 0
rfoot 0 0
rtoes 0
lfemur -2.89334 -7.34899 -15.5774
ltibia 19.4161
lfoot -24.6325 17.6349
ltoes -53.8706
86
root -0.579566 18.682 5.75419 2.39635 -5.29545 0.234045
lowerback 1.06598 1.17293 -3.51072
upperback -2.43845 1.48798 0.559358
thorax -3.21339 0.836738 2.48519
lowerneck -14.9151 -1.60077 -1.52614
upperneck 22.707 -2.53569 2.67601
head 9.70658 -1.0075 0.864944
rclavicle 7.59653e-015 5.46658e-016
rhumerus -48.8825 -0.77079 -85.9304
rradius 43.5663
rwrist 10.2153
rhand -9.70134 -43.2804
rfingers 7.12502
rthumb 16.2712 -72.6176
lclavicle 7.59653e-015 5.46658e-016
lhumerus -41.6962 -1.7412 91.2363
lradius 37.2915
lwrist -1.26978
lhand -4.57381 -20.9244
lfingers 7.12502
lthumb 21.2029 7.93608
rfemur 0 0 0
rtibia 0
rfoot 0 0
rtoes 0
lfemur -2.88394 -7.3362 -15.582
ltibia 19.4054
lfoot -24.6103 17.6531
ltoes -53.933
87
root -0.579201 18.682 5.75389 2.38896 -5.28894 0.216479
lowerback 1.09282 1.17655 -3.46849
upperback -2.43993 1.49275 0.552443
thorax -3.22895 0.838245 2.45358
lowerneck -14.8338 -1.60336 -1.57588
upperneck 22.6466 -2.54186 2.74122
head 9.6716 -1.00839 0.895504
rclavicle -2.06938e-015 -1.35422e-015
rhumerus -48.8939 -0.787383 -85.9402
rradius 43.5704
rwrist 10.2059
rhand -9.68823 -43.3093
rfingers 7.12502
rthumb 16.2839 -72.6455
lclavicle -2.06938e-015 -1.35422e-015
lhumerus -41.7335 -1.78513 91.243
lradius 37.3378
lwrist -1.26451
lhand -4.58184 -20.9049
lfingers 7.12502
lthumb 21.1951 7.9564
rfemur 0 0 0
rtibia 0
rfoot 0 0
rtoes 0
lfemur -2.86658 -7.40982 -15.5684
ltibia 19.3899
lfoot -24.6414 17.6952
ltoes -53.8994
88
root -0.577973 18.6815 5.7542 2.39582 -5.29268 0.268711
lowerback 1.08587 1.17767 -3.50023
upperback -2.43417 1.49314 0.531751
thorax -3.21944 0.838692 2.45023
lowerneck -14.8011 -1.60636 -1.60421
upperneck 22.615 -2.54729 2.77764
head 9.65533 -1.00973 0.912327
rclavicle -8.24685e-015 5.24295e-015
rhumerus -48.8965 -0.834728 -85.9048
rradius 43.5166
rwrist 10.21
rhand -9.59669 -43.3473
rfingers 7.12502
rthumb 16.372 -72.6763
lclavicle -8.24685e-015 5.24295e-015
lhumerus -41.7356 -1.7937 91.2425
lradius 37.3494
lwrist -1.25329
lhand -4.58506 -20.8861
lfingers 7.12502
lthumb 21.192 7.97553
rfemur 0 0 0
rtibia 0
rfoot 0 0
rtoes 0
lfemur -2.8751 -7.55806 -15.6391
ltibia 19.3861
lfoot -24.7567 17.7366
ltoes -53.7635
